<svg xmlns="http://www.w3.org/2000/svg" width="21" height="21" viewBox="0 0 21 21"><title>airfield-15.svg</title><rect width="21" height="21" x="0" y="0" fill="none"/><path fill="#fff" stroke="#fff" stroke-width="2" d="M6.8182,0.6818H4.7727	C4.0909,0.6818,4.0909,0,4.7727,0h5.4545c0.6818,0,0.6818,0.6818,0,0.6818H8.1818c0,0,0.8182,0.5909,0.8182,1.9545V4h6v2L9,8l-0.5,5	l2.5,1.3182V15H4v-0.6818L6.5,13L6,8L0,6V4h6V2.6364C6,1.2727,6.8182,0.6818,6.8182,0.6818z" transform="translate(3 3)" style="stroke-linejoin:round;stroke-miterlimit:4"/><path fill="#7f6d57" d="M6.8182,0.6818H4.7727	C4.0909,0.6818,4.0909,0,4.7727,0h5.4545c0.6818,0,0.6818,0.6818,0,0.6818H8.1818c0,0,0.8182,0.5909,0.8182,1.9545V4h6v2L9,8l-0.5,5	l2.5,1.3182V15H4v-0.6818L6.5,13L6,8L0,6V4h6V2.6364C6,1.2727,6.8182,0.6818,6.8182,0.6818z" transform="translate(3 3)"/></svg>