<svg xmlns="http://www.w3.org/2000/svg" width="17" height="17" viewBox="0 0 17 17"><title>american-football-11.svg</title><rect width="17" height="17" x="0" y="0" fill="none"/><path fill="#fff" stroke="#fff" stroke-width="2" d="M5.53,2C2.47,2,1,5.5,1,5.5S2.47,9,5.53,9S10,5.5,10,5.5S8.6,2,5.53,2z M7,6H4C3.7239,6,3.5,5.7761,3.5,5.5S3.7239,5,4,5h3	c0.2761,0,0.5,0.2239,0.5,0.5S7.2761,6,7,6z" transform="translate(3 3)" style="stroke-linejoin:round;stroke-miterlimit:4"/><path fill="#7f6d57" d="M5.53,2C2.47,2,1,5.5,1,5.5S2.47,9,5.53,9S10,5.5,10,5.5S8.6,2,5.53,2z M7,6H4C3.7239,6,3.5,5.7761,3.5,5.5S3.7239,5,4,5h3	c0.2761,0,0.5,0.2239,0.5,0.5S7.2761,6,7,6z" transform="translate(3 3)"/></svg>