<svg xmlns="http://www.w3.org/2000/svg" width="17" height="17" viewBox="0 0 17 17"><title>fitness-cenre-11.svg</title><rect width="17" height="17" x="0" y="0" fill="none"/><path fill="#fff" stroke="#fff" stroke-width="2" d="M7,6H4V5H7ZM2,3V4H1V5A.5.5,0,0,0,1,6V7H2V8H3.5V3Zm8,2V4H9V3H7.5V8H9V7h1V6a.5.5,0,0,0,0-1Z" transform="translate(3 3)" style="stroke-linejoin:round;stroke-miterlimit:4"/><path fill="#7f6d57" d="M7,6H4V5H7ZM2,3V4H1V5A.5.5,0,0,0,1,6V7H2V8H3.5V3Zm8,2V4H9V3H7.5V8H9V7h1V6a.5.5,0,0,0,0-1Z" transform="translate(3 3)"/></svg>