<svg xmlns="http://www.w3.org/2000/svg" width="17" height="17" viewBox="0 0 17 17"><title>mobile-phone-11.svg</title><rect width="17" height="17" x="0" y="0" fill="none"/><path fill="#fff" stroke="#fff" stroke-width="2" d="M7,2V1.5a.5.5,0,0,0-1,0V2H4A1,1,0,0,0,3,3V9a1,1,0,0,0,1,1H7A1,1,0,0,0,8,9V3A1,1,0,0,0,7,2ZM5,9H4V8H5ZM5,7H4V6H5ZM7,9H6V8H7ZM7,7H6V6H7ZM7,5H4V3H7Z" transform="translate(3 3)" style="stroke-linejoin:round;stroke-miterlimit:4"/><path fill="#7f6d57" d="M7,2V1.5a.5.5,0,0,0-1,0V2H4A1,1,0,0,0,3,3V9a1,1,0,0,0,1,1H7A1,1,0,0,0,8,9V3A1,1,0,0,0,7,2ZM5,9H4V8H5ZM5,7H4V6H5ZM7,9H6V8H7ZM7,7H6V6H7ZM7,5H4V3H7Z" transform="translate(3 3)"/></svg>