<svg xmlns="http://www.w3.org/2000/svg" width="17" height="17" viewBox="0 0 17 17"><title>ranger-station-11.svg</title><rect width="17" height="17" x="0" y="0" fill="none"/><path fill="#fff" stroke="#fff" stroke-width="2" d="M6.334,0L5,1v3L1,6.0547V10h3V7	h3v3h3V6.0547L6,4V2.25L6.334,2l1.332,1L9,2V0L7.666,1L6.334,0z" transform="translate(3 3)" style="stroke-linejoin:round;stroke-miterlimit:4"/><path fill="#7f6d57" d="M6.334,0L5,1v3L1,6.0547V10h3V7	h3v3h3V6.0547L6,4V2.25L6.334,2l1.332,1L9,2V0L7.666,1L6.334,0z" transform="translate(3 3)"/></svg>