<svg xmlns="http://www.w3.org/2000/svg" width="21" height="21" viewBox="0 0 21 21"><title>religious-christian-15.svg</title><rect width="21" height="21" x="0" y="0" fill="none"/><path fill="#fff" stroke="#fff" stroke-width="2" d="M6,0.9552V4H3v3h3v8h3V7h3V4H9V1	c0-1-0.9776-1-0.9776-1H6.9887C6.9887,0,6,0,6,0.9552z" transform="translate(3 3)" style="stroke-linejoin:round;stroke-miterlimit:4"/><path fill="#7f6d57" d="M6,0.9552V4H3v3h3v8h3V7h3V4H9V1	c0-1-0.9776-1-0.9776-1H6.9887C6.9887,0,6,0,6,0.9552z" transform="translate(3 3)"/></svg>