<svg xmlns="http://www.w3.org/2000/svg" width="17" height="17" viewBox="0 0 17 17"><title>skateboard-11.svg</title><rect width="17" height="17" x="0" y="0" fill="none"/><path fill="#fff" stroke="#fff" stroke-width="2" d="M8,6H3A2.0024,2.0024,0,0,1,1,4H2A1.001,1.001,0,0,0,3,5H8A1.001,1.001,0,0,0,9,4h1A2.0024,2.0024,0,0,1,8,6ZM8,7A1,1,0,1,0,9,8,1,1,0,0,0,8,7ZM3,7A1,1,0,1,0,4,8,1,1,0,0,0,3,7Z" transform="translate(3 3)" style="stroke-linejoin:round;stroke-miterlimit:4"/><path fill="#7f6d57" d="M8,6H3A2.0024,2.0024,0,0,1,1,4H2A1.001,1.001,0,0,0,3,5H8A1.001,1.001,0,0,0,9,4h1A2.0024,2.0024,0,0,1,8,6ZM8,7A1,1,0,1,0,9,8,1,1,0,0,0,8,7ZM3,7A1,1,0,1,0,4,8,1,1,0,0,0,3,7Z" transform="translate(3 3)"/></svg>