<svg xmlns="http://www.w3.org/2000/svg" width="17" height="17" viewBox="0 0 17 17"><title>square-stroked-11.svg</title><rect width="17" height="17" x="0" y="0" fill="none"/><path fill="#fff" stroke="#fff" stroke-width="2" d="M9.19,1H1.81C1.3626,1,1,1.3626,1,1.81v7.38C1,9.6374,1.3626,10,1.81,10c0,0,0,0,0,0h7.38C9.6374,10,10,9.6374,10,9.19v0	V1.81C10,1.3626,9.6374,1,9.19,1L9.19,1L9.19,1z M2,2h7v7H2V2z" transform="translate(3 3)" style="stroke-linejoin:round;stroke-miterlimit:4"/><path fill="#7f6d57" d="M9.19,1H1.81C1.3626,1,1,1.3626,1,1.81v7.38C1,9.6374,1.3626,10,1.81,10c0,0,0,0,0,0h7.38C9.6374,10,10,9.6374,10,9.19v0	V1.81C10,1.3626,9.6374,1,9.19,1L9.19,1L9.19,1z M2,2h7v7H2V2z" transform="translate(3 3)"/></svg>