<svg xmlns="http://www.w3.org/2000/svg" width="21" height="21" viewBox="0 0 21 21"><title>suitcase-15.svg</title><rect width="21" height="21" x="0" y="0" fill="none"/><path fill="#fff" stroke="#fff" stroke-width="2" d="M11,4V2c0-1-1-1-1-1H5.0497	c0,0-1.1039,0.0015-1.0497,1v2H2c0,0-1,0-1,1v7c0,1,1,1,1,1h11c0,0,1,0,1-1V5c0-1-1-1-1-1H11z M5.5,2.5h4V4h-4V2.5z" transform="translate(3 3)" style="stroke-linejoin:round;stroke-miterlimit:4"/><path fill="#7f6d57" d="M11,4V2c0-1-1-1-1-1H5.0497	c0,0-1.1039,0.0015-1.0497,1v2H2c0,0-1,0-1,1v7c0,1,1,1,1,1h11c0,0,1,0,1-1V5c0-1-1-1-1-1H11z M5.5,2.5h4V4h-4V2.5z" transform="translate(3 3)"/></svg>