<svg xmlns="http://www.w3.org/2000/svg" width="21" height="21" viewBox="0 0 21 21"><title>town-hall-15.svg</title><rect width="21" height="21" x="0" y="0" fill="none"/><path fill="#fff" stroke="#fff" stroke-width="2" d="M7.5,0L1,3.4453V4h13V3.4453L7.5,0z M2,5v5l-1,1.5547V13h13v-1.4453L13,10V5H2z M4,6h1v5.5H4V6z M7,6h1v5.5H7	V6z M10,6h1v5.5h-1V6z" transform="translate(3 3)" style="stroke-linejoin:round;stroke-miterlimit:4"/><path fill="#7f6d57" d="M7.5,0L1,3.4453V4h13V3.4453L7.5,0z M2,5v5l-1,1.5547V13h13v-1.4453L13,10V5H2z M4,6h1v5.5H4V6z M7,6h1v5.5H7	V6z M10,6h1v5.5h-1V6z" transform="translate(3 3)"/></svg>