<svg xmlns="http://www.w3.org/2000/svg" xmlns:xlink="http://www.w3.org/1999/xlink" id="Layer_2" x="0" y="0" version="1.1" viewBox="0 0 492.5 530.5" xml:space="preserve" style="enable-background:new 0 0 492.5 530.5"><switch><g><path d="M195,9.3c-1.9,6.9-3.5,13.8-5.6,20.6c-12.1,38.3-16.8,77.3-12.6,117.3c6.7,62.9,31,118.1,73.5,164.9 c44.5,49,99.7,79,164.8,90.8c20.7,3.7,41.7,4.6,62.7,4.2c2.1,0,4.3,0,6.4,0c0.1,0.6,0.2,1.1,0.1,1.2 c-40.5,53.9-92.1,91.4-158.6,106.5c-12,2.7-24.3,3.8-36.5,5.6c-1.5,0.2-2.9,0.6-4.3,0.9c-11,0-22,0-33,0c-1.3-0.3-2.5-0.7-3.8-0.9 c-14-2.2-28.2-3.5-41.8-6.9C75,480.9-9.9,355.1,11.4,221.5C26.6,126.4,80.5,59.4,168.7,20.2C177.4,16.4,186.2,12.9,195,9.3z M429.5,431c-91-12.2-165-53.8-219.1-128c-54.1-74.2-71.1-157.4-54.5-247.7c-63.2,32.3-128,112-122,219.3 c5.3,95.4,69.3,180.9,164.8,210.7C288.5,513.3,379.1,482.2,429.5,431z"/></g></switch></svg>